# xmcd
#
# Track frame offsets:
#	150
#	11847
#	23053
#	37598
#	51177
#	64555
#	76098
#	90533
#	101248
#	113853
#	127415
#	142246
#	157235
#	172310
#	184193
#	198910
#	210608
#	221479
#	235380
#	252276
#
# Disc length: 3507 seconds
#
# Revision: 0
# Processed by: cddbd v1.5.1PL0 Copyright (c) Steve Scherf et al.
# Submitted via: dBpowerAMP V4.0
#
DISCID=250db114
DTITLE=Various Artist - Lone Star Most Wanted Country Collection
DYEAR=1900
DGENRE=Country
TTITLE0=Cam Fletcher - Kickin' Up Dirt
TTITLE1=The Ranch - Some Days You Gotta Dance
TTITLE2=Martina McBride - Two More Bottles of Wine
TTITLE3=Pirates of the Mississippi - Honky tonk Blued
TTITLE4=Tania Kernaghan - Boys In Boots
TTITLE5=Garth Brooks and Chris LeDoux - Watcha Gonna Do With a Cowboy
TTITLE6=Gina Jefferys - Girls Night Out
TTITLE7=Asleep At The Wheel - If I Could
TTITLE8=Shanley Del - I Don't Want To Talk About Love
TTITLE9=Travis Tritt - T-R-O-U-B-L-E
TTITLE10=Chris LeDoux - Cadillac Cowboy
TTITLE11=Asleep At The Wheel - Lay Down Sally
TTITLE12=Lee Kernaghan - Scrubbashin'
TTITLE13=Tanya Tucker - It's A Little Too Late
TTITLE14=Billy Dean - Don't Threaten Me With A Good Time
TTITLE15=Troy Cassar-Daley - Good Woman's Love
TTITLE16=Randy Travis - Would I
TTITLE17=Mindy McCready - It Ain't A Party
TTITLE18=Keith Urban - I Never Work On A Sunday
TTITLE19=Ian Betteridge - The Lone Star Dance
EXTD=Lone Star\nSteakhouse and Salon\nMost Wanted Country Collection
EXTT0=
EXTT1=
EXTT2=
EXTT3=
EXTT4=
EXTT5=
EXTT6=
EXTT7=
EXTT8=
EXTT9=
EXTT10=
EXTT11=
EXTT12=
EXTT13=
EXTT14=
EXTT15=
EXTT16=
EXTT17=
EXTT18=
EXTT19=
PLAYORDER=
